<?xml version="1.0" encoding="utf-8"?>
<!-- Generator: Adobe Illustrator 23.0.2, SVG Export Plug-In . SVG Version: 6.00 Build 0)  -->
<svg version="1.1" xmlns="http://www.w3.org/2000/svg" xmlns:xlink="http://www.w3.org/1999/xlink" x="0px" y="0px"
	 viewBox="0 0 759 300" style="enable-background:new 0 0 759 300;" xml:space="preserve">
<style type="text/css">
	.st0{fill:#008ED4;}
	.st1{fill:#FFFFFF;}
	.st2{fill:none;}
	.st3{fill:#80848A;}
</style>
<g id="main">
	<g id="box">
		<path class="st0" d="M235.8,17.8h-163c-30,0-54.3,24.3-54.3,54.3v151.7c0,30,24.3,54.3,54.3,54.3h163c30,0,54.3-24.3,54.3-54.3
			V72.1C290.1,42.1,265.8,17.8,235.8,17.8z"/>
		<path class="st1" d="M153.7,141.2c0,0-11.1-3.6-11.1-10V114c0-37.2-22.9-44.4-38.9-45.3c-1.7-0.2-3,0.9-3.1,2.6
			c-0.3,4.7-0.5,8.4-0.8,13.2c0,1.2,1.1,2.6,2.2,3c10.9,2.8,17.1,11.2,17.1,26.5c0,10.9,0,12.5,0,14.2c0,12.3,13.2,19.9,13.2,19.9
			v0.6c-4,1.7-13.2,7.5-13.2,18.7c0,2.2,0,4.5,0,14.6c0,15.3-6.2,23.7-17.1,26.5c-1.1,0.3-2.2,1.7-2.2,3c0.2,5.4,0.2,8.6,0.8,13.2
			c0.1,1.6,1.5,2.8,3.1,2.7c16-0.9,38.9-8.1,38.9-45.3v-16.2c0-7,7-9.2,10.8-10c1.2-0.2,2.3-1.6,2.3-2.8v-9
			C155.8,142.8,154.7,141.5,153.7,141.2z"/>
		<path class="st1" d="M219.2,208.5c-10.9-2.8-17.1-11.2-17.1-26.5c0-10.1,0-12.5,0-14.6c0-11.2-9.2-17-13.2-18.7v-0.6
			c0,0,13.2-7.6,13.2-19.9c0-1.7,0-3.3,0-14.2c0-15.2,6.2-23.7,17.1-26.5c1.1-0.3,2.2-1.7,2.2-3c-0.3-4.8-0.5-8.6-0.8-13.2
			c-0.2-1.7-1.4-2.8-3.1-2.6c-16,0.9-38.9,8.1-38.9,45.3v17.3c0,6.4-11.1,10-11.1,10c-0.9,0.3-2,1.6-2,2.8v9c0,1.2,1.1,2.6,2.3,2.8
			c3.7,0.8,10.7,3,10.7,10V182c0,37.2,22.9,44.4,38.9,45.3c1.6,0.2,3-1.1,3.1-2.7c0.6-4.7,0.6-7.8,0.8-13.2
			C221.4,210.2,220.3,208.8,219.2,208.5z"/>
		<path class="st1" d="M103.3,111.7c0-1.1-1-2.1-2-2.1H88c-1.2,0-2.1,1-2.1,2.1v43.8c0,7.6-5.7,13.6-13.5,13.6
			c-7.7,0-13.3-6-13.3-13.6v-43.8c0-1.1-0.9-2.1-2-2.1H43.8c-1.1,0-2.1,1-2.1,2.1v44.6c0,16.4,13.7,30,30.7,30
			c17.1,0,30.9-13.6,30.9-30V111.7z"/>
		<path class="st1" d="M246.8,139.8c-8.6-3.5-11.9-6.6-11.9-10.6c0-3,2.9-5.6,6.9-5.6c6.7,0,14.7,6,15.7,6.6c1,0.8,3-0.2,3.7-1.4
			l5.6-8.4c0.4-0.8,0.7-2.7-0.7-3.5c-3.3-2.4-12.1-8.2-23.5-8.2c-16.9,0-25.3,11-25.3,21.8c0,13.1,11.8,20.5,21.3,24.2
			c7.5,3,11.3,6.5,11.3,11.1c0,3.8-3.2,6.6-7.6,6.6c-7.2,0-15.1-5.8-15.6-6c-0.8-0.5-2.9-0.8-3.7,0.7l-5.2,9.1
			c-0.9,1.5-0.5,2,0.6,3.1c2.5,2.5,10.4,8.4,24.7,8.4c16.1,0,25.9-11.4,25.9-22.7C268.9,149.9,255.4,143.2,246.8,139.8z"/>
	</g>
	<g id="text">
		<path class="st2" d="M463.3,57.4H453V70h10.3c3.4,0,6.3-2.9,6.3-6.5C469.6,60.2,466.7,57.4,463.3,57.4z"/>
		<path class="st2" d="M426.3,139.8c0-3.5-3-6.1-6.5-6.1h-7.3v12.7h7.3C423.3,146.4,426.3,143.5,426.3,139.8z"/>
		<path class="st2" d="M380.1,209.4c-8,0-14.5,6.6-14.5,14.6c0,8,6.5,14.5,14.5,14.5c8,0,14.6-6.5,14.6-14.5
			C394.7,216.1,388.1,209.4,380.1,209.4z"/>
		<path class="st2" d="M498.9,133.4h-10.3V146h10.3c3.4,0,6.3-2.9,6.3-6.5C505.2,136.2,502.3,133.4,498.9,133.4z"/>
		<path class="st3" d="M360.1,51c0-0.6-0.6-1.2-1.2-1.2h-6c-0.7,0-1.2,0.6-1.2,1.2v26c0,5.3-3.7,9.6-9.3,9.6c-5.5,0-9.2-4.2-9.2-9.6
			V51c0-0.6-0.5-1.2-1.2-1.2h-6c-0.6,0-1.2,0.6-1.2,1.2v26.3c0,9.6,7.7,17.4,17.6,17.4c10,0,17.7-7.8,17.7-17.4V51z"/>
		<path class="st3" d="M383.1,87.5c-4.1,0-9.2-3.7-9.6-3.9c-0.6-0.4-1.6-0.4-2.2,0.4l-2.3,3.9c-0.6,1-0.3,1.3,0.3,1.9
			c1.3,1.2,6,4.9,13.9,4.9c8.9,0,14.6-6,14.6-12.5c0-8.2-7.1-11.8-13.2-14.3c-5.1-2.1-7.5-4.1-7.5-7.1c0-2,2-4.4,5.6-4.4
			c3.5,0,8.3,3.2,8.8,3.5c0.8,0.5,1.7,0,2.2-0.8l2.4-3.6c0.4-0.6,0.3-1.7-0.4-2.1c-1.3-1-6.2-4.2-12.7-4.2
			c-10.1,0-14.2,6.5-14.2,12.2c0,7.5,6,11.3,11.9,13.7c5.3,2.2,8,4.4,8,7.6C388.9,85.4,386.4,87.5,383.1,87.5z"/>
		<path class="st3" d="M408,94.2h25.8c0.7,0,1.2-0.6,1.2-1.2v-5.2c0-0.6-0.5-1.2-1.2-1.2H415V75.5h15.6c0.6,0,1.2-0.5,1.2-1.2V69
			c0-0.6-0.6-1.2-1.2-1.2H415V57.4h18.7c0.7,0,1.2-0.6,1.2-1.2V51c0-0.6-0.5-1.2-1.2-1.2H408c-0.7,0-1.2,0.6-1.2,1.2V93
			C406.8,93.6,407.3,94.2,408,94.2z"/>
		<path class="st3" d="M477.1,92.3l-8.7-16.1c5.5-2.2,9.4-7,9.4-12.8c0-7.5-6.2-13.6-13.8-13.6h-18.1c-0.7,0-1.2,0.6-1.2,1.2V93
			c0,0.6,0.5,1.2,1.2,1.2h5.8c0.6,0,1.2-0.6,1.2-1.2V76.8h7l8.4,16.8c0.1,0.3,0.4,0.6,1,0.6h6.7C477.1,94.2,477.6,93.1,477.1,92.3z
			 M463.3,70H453V57.4h10.3c3.4,0,6.3,2.8,6.3,6.1C469.6,67.1,466.7,70,463.3,70z"/>
		<path class="st3" d="M352.5,125.8h-25.8c-0.7,0-1.2,0.6-1.2,1.2V169c0,0.6,0.5,1.2,1.2,1.2h25.8c0.7,0,1.2-0.6,1.2-1.2v-5.2
			c0-0.6-0.5-1.2-1.2-1.2h-18.7v-11.1h15.6c0.6,0,1.2-0.5,1.2-1.2V145c0-0.6-0.6-1.2-1.2-1.2h-15.6v-10.4h18.7
			c0.7,0,1.2-0.6,1.2-1.2V127C353.7,126.4,353.2,125.8,352.5,125.8z"/>
		<path class="st3" d="M360.1,127.6l12.7,19.8l-13.2,21c-0.5,0.8,0,1.8,1.1,1.8h6.8c0.5,0,0.9-0.3,1.1-0.6l8.9-14.5h0.2l9.1,14.5
			c0.1,0.3,0.6,0.6,1.1,0.6h6.8c1.1,0,1.6-0.9,1.1-1.8l-13.2-21l12.7-19.8c0.5-0.8,0-1.8-1.1-1.8h-7.3c-0.5,0-0.9,0.3-1,0.6
			l-8.2,13.4h-0.1l-8.1-13.4c-0.2-0.3-0.5-0.6-1-0.6h-7.3C360.1,125.8,359.6,126.8,360.1,127.6z"/>
		<path class="st3" d="M412.4,169v-14.9h7.9c7.7,0,14.1-6.4,14.1-14.2c0-7.7-6.4-14-14.2-14h-14.9c-0.7,0-1.2,0.6-1.2,1.2V169
			c0,0.6,0.5,1.2,1.2,1.2h5.8C411.8,170.2,412.4,169.6,412.4,169z M412.4,133.6h7.3c3.5,0,6.5,2.7,6.5,6.1c0,3.7-3,6.6-6.5,6.6h-7.3
			V133.6z"/>
		<path class="st3" d="M469.3,125.8h-25.8c-0.7,0-1.2,0.6-1.2,1.2V169c0,0.6,0.5,1.2,1.2,1.2h25.8c0.7,0,1.2-0.6,1.2-1.2v-5.2
			c0-0.6-0.5-1.2-1.2-1.2h-18.8v-11.1h15.6c0.6,0,1.2-0.5,1.2-1.2V145c0-0.6-0.6-1.2-1.2-1.2h-15.6v-10.4h18.8
			c0.7,0,1.2-0.6,1.2-1.2V127C470.5,126.4,470,125.8,469.3,125.8z"/>
		<path class="st3" d="M512.7,168.3l-8.7-16.1c5.5-2.2,9.4-7,9.4-12.8c0-7.5-6.2-13.6-13.8-13.6h-18.1c-0.7,0-1.2,0.6-1.2,1.2V169
			c0,0.6,0.5,1.2,1.2,1.2h5.8c0.6,0,1.2-0.6,1.2-1.2v-16.1h7l8.4,16.8c0.1,0.3,0.4,0.6,1,0.6h6.7
			C512.7,170.2,513.2,169.2,512.7,168.3z M498.9,146h-10.3v-12.6h10.3c3.4,0,6.3,2.8,6.3,6.1C505.2,143.1,502.3,146,498.9,146z"/>
		<path class="st3" d="M524.4,170.2h5.9c0.6,0,1.2-0.6,1.2-1.2V127c0-0.6-0.6-1.2-1.2-1.2h-5.9c-0.6,0-1.2,0.6-1.2,1.2V169
			C523.2,169.6,523.8,170.2,524.4,170.2z"/>
		<path class="st3" d="M544.9,170.2h25.8c0.7,0,1.2-0.6,1.2-1.2v-5.2c0-0.6-0.5-1.2-1.2-1.2h-18.8v-11.1h15.7c0.6,0,1.2-0.5,1.2-1.2
			V145c0-0.6-0.6-1.2-1.2-1.2h-15.7v-10.4h18.8c0.7,0,1.2-0.6,1.2-1.2V127c0-0.6-0.5-1.2-1.2-1.2h-25.8c-0.7,0-1.2,0.6-1.2,1.2V169
			C543.7,169.6,544.2,170.2,544.9,170.2z"/>
		<path class="st3" d="M617.9,125.8H612c-0.7,0-1.2,0.6-1.2,1.2v26.2h-0.1l-26.3-28h-1.6c-0.6,0-1.2,0.5-1.2,1.1V169
			c0,0.6,0.6,1.2,1.2,1.2h5.8c0.7,0,1.2-0.6,1.2-1.2v-27.2h0.1l26.5,29.1h1.5c0.6,0,1.2-0.5,1.2-1.1V127
			C619.1,126.4,618.5,125.8,617.9,125.8z"/>
		<path class="st3" d="M662.5,158.9c-0.4-0.4-1.1-0.4-1.6,0c-2.7,2.2-5.9,3.6-9.7,3.6c-8.1,0-14.2-6.7-14.2-14.6
			c0-8,6-14.8,14.1-14.8c3.5,0,7.1,1.4,9.8,3.7c0.5,0.5,1.1,0.5,1.6,0l3.9-4c0.5-0.5,0.5-1.3-0.1-1.8c-4.3-3.9-8.9-5.9-15.3-5.9
			c-12.7,0-22.9,10.2-22.9,22.9c0,12.7,10.2,22.7,22.9,22.7c5.6,0,11.1-2,15.4-6.1c0.4-0.4,0.6-1.3,0.1-1.7L662.5,158.9z"/>
		<path class="st3" d="M702.3,133.4c0.7,0,1.2-0.6,1.2-1.2V127c0-0.6-0.5-1.2-1.2-1.2h-25.8c-0.7,0-1.2,0.6-1.2,1.2V169
			c0,0.6,0.5,1.2,1.2,1.2h25.8c0.7,0,1.2-0.6,1.2-1.2v-5.2c0-0.6-0.5-1.2-1.2-1.2h-18.7v-11.1h15.6c0.6,0,1.2-0.5,1.2-1.2V145
			c0-0.6-0.6-1.2-1.2-1.2h-15.6v-10.4H702.3z"/>
		<path class="st3" d="M338.5,220c-5.1-2.1-7.5-4.1-7.5-7.1c0-2,2-4.4,5.6-4.4c3.5,0,8.3,3.2,8.8,3.5c0.8,0.5,1.7,0,2.2-0.8l2.4-3.6
			c0.4-0.6,0.3-1.7-0.4-2.1c-1.3-1-6.2-4.2-12.7-4.2c-10.1,0-14.3,6.5-14.3,12.2c0,7.5,6,11.3,11.9,13.7c5.3,2.2,8,4.4,8,7.6
			c0,2.7-2.5,4.9-5.8,4.9c-4.1,0-9.2-3.7-9.6-3.9c-0.6-0.4-1.7-0.4-2.2,0.4l-2.3,3.9c-0.6,1-0.2,1.3,0.3,1.9c1.3,1.2,6,4.9,13.9,4.9
			c8.9,0,14.6-6,14.6-12.5C351.7,226.1,344.6,222.4,338.5,220z"/>
		<path class="st3" d="M380.1,201.2c-12.7,0-22.7,10.2-22.7,22.9c0,12.7,10.1,22.7,22.7,22.7c12.7,0,22.8-10.1,22.8-22.7
			C402.9,211.4,392.8,201.2,380.1,201.2z M380.1,238.6c-8,0-14.5-6.5-14.5-14.5c0-8,6.5-14.6,14.5-14.6c8,0,14.6,6.6,14.6,14.6
			C394.7,232,388.1,238.6,380.1,238.6z"/>
		<path class="st3" d="M443.1,234.9c-0.4-0.4-1.1-0.4-1.6,0c-2.7,2.2-5.9,3.6-9.7,3.6c-8.1,0-14.2-6.7-14.2-14.6
			c0-8,6-14.8,14.1-14.8c3.5,0,7.1,1.4,9.8,3.7c0.5,0.5,1.1,0.5,1.6,0l3.9-4c0.5-0.5,0.5-1.3-0.1-1.8c-4.3-3.9-8.9-5.9-15.3-5.9
			c-12.7,0-22.9,10.2-22.9,22.9c0,12.7,10.2,22.7,22.9,22.7c5.6,0,11.1-2,15.4-6.1c0.4-0.4,0.6-1.3,0.1-1.7L443.1,234.9z"/>
		<path class="st3" d="M463,201.8h-5.9c-0.6,0-1.2,0.6-1.2,1.2V245c0,0.6,0.6,1.2,1.2,1.2h5.9c0.6,0,1.2-0.6,1.2-1.2V203
			C464.2,202.4,463.7,201.8,463,201.8z"/>
		<path class="st3" d="M503.4,201.8h-25.8c-0.7,0-1.2,0.6-1.2,1.2V245c0,0.6,0.5,1.2,1.2,1.2h25.8c0.7,0,1.2-0.6,1.2-1.2v-5.2
			c0-0.6-0.5-1.2-1.2-1.2h-18.7v-11.1h15.6c0.6,0,1.2-0.5,1.2-1.2V221c0-0.6-0.6-1.2-1.2-1.2h-15.6v-10.4h18.7
			c0.7,0,1.2-0.6,1.2-1.2V203C504.6,202.4,504.1,201.8,503.4,201.8z"/>
		<path class="st3" d="M538.3,201.8h-27.7c-0.7,0-1.2,0.6-1.2,1.2v5.2c0,0.6,0.5,1.2,1.2,1.2h9.7V245c0,0.6,0.6,1.2,1.2,1.2h5.9
			c0.6,0,1.2-0.6,1.2-1.2v-35.5h9.7c0.7,0,1.2-0.6,1.2-1.2V203C539.5,202.4,539,201.8,538.3,201.8z"/>
		<path class="st3" d="M579.2,201.8h-6.5c-0.5,0-0.8,0.3-1,0.6L561.6,217l-10.1-14.6c-0.2-0.3-0.5-0.6-1-0.6H544c-1,0-1.5,1-1,1.8
			l14.4,21.2V245c0,0.6,0.5,1.2,1.2,1.2h5.8c0.6,0,1.2-0.6,1.2-1.2v-20.2l14.6-21.1C580.8,202.8,580.2,201.8,579.2,201.8z"/>
	</g>
</g>
<g id="alternate">
</g>
</svg>
